<svg data-v-fde0c5aa="" xmlns="http://www.w3.org/2000/svg" viewBox="0 0 300 300" class="iconAboveSlogan"><!----><defs data-v-fde0c5aa=""><!----></defs><rect data-v-fde0c5aa="" fill="#DEE5F3" x="0" y="0" width="300px" height="300px" class="logo-background-square"></rect><defs data-v-fde0c5aa=""><!----></defs><g data-v-fde0c5aa="" id="bedc7c6b-a44c-466f-bbc2-9af6341b6dfc" fill="#0C203C" transform="matrix(3.8325473766982268,0,0,3.8325473766982268,17.08726403025937,149.61731364410946)"><path d="M0.76 8.02C0.76 10.85 2.60 12.64 5.84 12.64C7.90 12.64 9.56 11.45 9.56 11.45L9.65 9.41L9.16 9.41L9.11 10.58C9.10 11.00 7.62 12.03 6.19 12.03C3.71 12.03 1.95 9.84 1.95 7.62C1.95 5.50 3.51 3.71 5.87 3.71C6.82 3.71 7.78 3.93 8.19 4.14C9.06 4.58 8.88 4.27 9.04 5.66L9.55 5.64C9.46 4.75 9.41 3.85 9.38 2.97L8.85 2.97C8.83 3.40 8.86 3.49 8.62 3.49C8.40 3.49 7.88 3.05 5.82 3.05C3.58 3.05 0.76 4.66 0.76 8.02ZM10.65 9.86C10.65 10.93 11.24 12.60 13.22 12.60C14.73 12.60 15.76 11.42 15.76 11.16C15.76 11.03 15.71 10.99 15.64 10.99C15.40 10.99 14.88 11.65 13.78 11.65C12.60 11.65 11.70 10.86 11.70 9.45C11.70 9.38 11.72 9.30 11.72 9.25L15.23 8.83C15.29 8.83 15.46 8.78 15.46 8.62C15.46 8.13 14.66 6.83 13.13 6.83C11.75 6.83 10.65 8.04 10.65 9.86ZM11.75 8.76C11.90 7.84 12.43 7.31 12.99 7.31C13.76 7.31 14.15 8.46 14.15 8.46ZM16.34 7.20L16.38 7.63C16.67 7.57 17.11 7.48 17.23 7.48C17.40 7.48 17.43 7.60 17.43 7.98L17.43 11.40C17.43 11.94 17.39 11.97 16.81 11.97L16.55 11.97L16.55 12.42L19.89 12.42L19.89 11.97L19.29 11.97C18.48 11.97 18.41 11.91 18.41 11.40L18.41 9.03C18.41 8.48 19.11 8.04 19.56 8.04C19.75 8.04 19.89 8.13 19.89 8.36L19.89 8.54L20.12 8.62L20.65 7.24C20.65 7.24 20.47 6.89 19.88 6.89C19.07 6.89 18.42 8.26 18.38 8.32L18.38 6.73C16.62 7.17 16.93 7.08 16.34 7.20ZM21.20 7.59C21.20 7.67 21.24 7.70 21.36 7.70L22.04 7.70L22.04 11.07C22.04 11.90 22.41 12.57 23.41 12.57C24.14 12.57 25.07 12.04 25.07 11.66C25.07 11.62 25.06 11.52 24.98 11.52C24.91 11.52 24.51 11.79 23.95 11.79C23.51 11.79 23.02 11.61 23.02 10.96L23.02 7.70L24.82 7.70L24.91 7.03L23.02 7.03L23.02 5.64C23.02 5.59 22.99 5.54 22.93 5.54C22.85 5.54 22.40 6.19 21.99 6.65C21.67 7.01 21.20 7.49 21.20 7.59ZM25.83 12.42L28.85 12.42L28.85 11.87C27.54 11.87 27.45 11.86 27.45 11.40L27.51 5.01L30.32 11.52C30.63 12.24 30.77 12.52 30.87 12.52C31.05 12.52 30.93 12.49 32.02 9.91L34.17 4.83L34.17 11.26C34.17 11.82 34.13 11.87 33.32 11.87L33.04 11.87L33.05 12.42L36.46 12.42L36.44 11.87L36.16 11.87C35.32 11.87 35.31 11.82 35.31 11.23L35.31 4.09C35.31 3.68 35.52 3.64 36.04 3.64L36.51 3.64L36.51 3.08L34.27 3.08L31.14 10.56L27.94 3.08L25.83 3.08L25.84 3.64L26.56 3.64C26.88 3.64 26.95 3.71 26.95 4.02C26.95 4.12 26.94 4.23 26.94 4.38L26.81 11.21C26.80 11.83 26.77 11.87 25.97 11.87L25.83 11.87ZM37.17 9.69C37.17 11.10 38.08 12.63 39.97 12.63C41.76 12.63 42.88 11.41 42.88 9.84C42.88 8.61 42.29 6.80 39.94 6.80C38.02 6.80 37.17 8.23 37.17 9.69ZM38.29 9.35C38.29 7.98 39.00 7.28 39.82 7.28C40.82 7.28 41.71 8.11 41.71 9.80C41.71 10.96 41.30 12.08 40.15 12.08C39.00 12.08 38.29 10.64 38.29 9.35ZM43.47 11.97L43.48 12.42L46.21 12.42L46.24 11.97L46.06 11.97C45.22 11.97 45.22 11.93 45.22 11.49L45.22 8.12C45.22 8.12 46.06 7.67 46.73 7.67C47.36 7.67 47.64 7.94 47.64 8.74L47.64 11.55C47.64 11.94 47.56 11.97 47.17 11.97L46.84 11.97L46.86 12.42L49.46 12.42L49.48 11.97C48.82 11.97 48.62 11.97 48.62 11.55L48.62 9.14C48.62 8.04 48.61 6.89 47.29 6.89C46.17 6.89 45.40 7.69 45.18 7.78C45.18 7.27 45.19 7.13 45.22 6.79L43.50 7.14L43.50 7.57C43.88 7.49 43.92 7.46 44.03 7.46C44.23 7.46 44.24 7.59 44.24 8.16L44.24 11.49C44.24 11.94 44.24 11.97 43.61 11.97ZM51.14 4.10C51.14 4.27 51.48 4.73 51.73 4.73C51.88 4.73 52.33 4.31 52.33 4.12C52.33 3.89 51.88 3.51 51.73 3.51C51.55 3.51 51.14 3.88 51.14 4.10ZM50.09 7.15L50.11 7.57C50.54 7.49 50.81 7.46 50.88 7.46C51.03 7.46 51.09 7.55 51.09 7.91L51.09 11.65C51.09 11.94 50.97 11.97 50.27 11.97L50.15 11.97L50.15 12.42L53.19 12.42L53.19 11.97L52.93 11.97C52.11 11.97 52.07 11.93 52.07 11.59L52.07 6.73C51.30 6.94 50.71 7.06 50.09 7.15ZM53.52 7.59C53.52 7.67 53.56 7.70 53.69 7.70L54.36 7.70L54.36 11.07C54.36 11.90 54.74 12.57 55.73 12.57C56.46 12.57 57.40 12.04 57.40 11.66C57.40 11.62 57.39 11.52 57.30 11.52C57.23 11.52 56.84 11.79 56.28 11.79C55.83 11.79 55.34 11.61 55.34 10.96L55.34 7.70L57.15 7.70L57.23 7.03L55.34 7.03L55.34 5.64C55.34 5.59 55.31 5.54 55.26 5.54C55.17 5.54 54.73 6.19 54.32 6.65C54.00 7.01 53.52 7.49 53.52 7.59ZM57.99 9.69C57.99 11.10 58.90 12.63 60.79 12.63C62.58 12.63 63.70 11.41 63.70 9.84C63.70 8.61 63.11 6.80 60.76 6.80C58.84 6.80 57.99 8.23 57.99 9.69ZM59.11 9.35C59.11 7.98 59.82 7.28 60.63 7.28C61.64 7.28 62.52 8.11 62.52 9.80C62.52 10.96 62.12 12.08 60.97 12.08C59.82 12.08 59.11 10.64 59.11 9.35ZM64.29 7.20L64.33 7.63C64.62 7.57 65.06 7.48 65.18 7.48C65.35 7.48 65.38 7.60 65.38 7.98L65.38 11.40C65.38 11.94 65.34 11.97 64.76 11.97L64.50 11.97L64.50 12.42L67.84 12.42L67.84 11.97L67.24 11.97C66.43 11.97 66.36 11.91 66.36 11.40L66.36 9.03C66.36 8.48 67.06 8.04 67.51 8.04C67.70 8.04 67.84 8.13 67.84 8.36L67.84 8.54L68.07 8.62L68.60 7.24C68.60 7.24 68.42 6.89 67.83 6.89C67.02 6.89 66.37 8.26 66.33 8.32L66.33 6.73C64.57 7.17 64.88 7.08 64.29 7.20Z"></path></g><defs data-v-fde0c5aa=""><linearGradient data-v-fde0c5aa="" gradientTransform="rotate(25)" id="7c5888df-5914-4660-b1c7-578afa0a5d26" x1="0%" y1="0%" x2="100%" y2="0%"><stop data-v-fde0c5aa="" offset="0%" stop-color="#288B58" stop-opacity="1"></stop><stop data-v-fde0c5aa="" offset="100%" stop-color="#1522F1" stop-opacity="1"></stop></linearGradient></defs><g data-v-fde0c5aa="" id="93e713ce-0d69-4074-b440-df9046f07d82" stroke="none" fill="url(#7c5888df-5914-4660-b1c7-578afa0a5d26)" transform="matrix(0.7276863414236343,0,0,0.7276863414236343,116.89026868932154,81.87432678296796)"><path d="M65 82.5c0 .83-.67 1.5-1.5 1.5h-37c-.83 0-1.5-.67-1.5-1.5s.67-1.5 1.5-1.5h37c.83 0 1.5.67 1.5 1.5zM56.6 79H34.39l4.82-7h12.57zM7 60v6c0 2.21 1.79 4 4 4h69c2.21 0 4-1.79 4-4v-6H7zm43 6H40c-.55 0-1-.45-1-1s.45-1 1-1h10c.55 0 1 .45 1 1s-.45 1-1 1zM65 34.31v7.1l-2.4-1.24c-.28-.15-.61-.15-.9-.02L59 41.46v-7.15c.91.44 1.93.69 3 .69s2.09-.25 3-.69zM62 23c-2.76 0-5 2.24-5 5s2.24 5 5 5 5-2.24 5-5-2.24-5-5-5zm0 8.13c-1.76 0-3.2-1.43-3.2-3.19s1.44-3.2 3.2-3.2c1.75 0 3.19 1.44 3.19 3.2s-1.44 3.19-3.19 3.19z"></path><path d="M61 21.08V9c0-1.65-1.35-3-3-3H33c-1.65 0-3 1.35-3 3v35c0 1.65 1.35 3 3 3h25c1.65 0 3-1.35 3-3v-1.29l-2.56 1.24c-.14.07-.29.1-.44.1a.999.999 0 01-1-1V33c0-.03.02-.06.02-.09-1.25-1.26-2.02-3-2.02-4.91 0-3.52 2.61-6.43 6-6.92zM49 40H36c-.55 0-1-.45-1-1s.45-1 1-1h13c.55 0 1 .45 1 1s-.45 1-1 1zm0-7H36c-.55 0-1-.45-1-1s.45-1 1-1h13c.55 0 1 .45 1 1s-.45 1-1 1zm-14-8c0-.55.45-1 1-1h12c.55 0 1 .45 1 1s-.45 1-1 1H36c-.55 0-1-.45-1-1zm21-7c0 .55-.45 1-1 1H36c-.55 0-1-.45-1-1v-5c0-.55.45-1 1-1h19c.55 0 1 .45 1 1v5z"></path><path d="M84 16v42H7V16c0-2.21 1.79-4 4-4h17v32c0 2.76 2.24 5 5 5h25c2.76 0 5-2.24 5-5v-1.37l2.54 1.31c.31.16.68.15.98-.03s.48-.51.48-.86V33c0-.03-.02-.06-.02-.09 1.25-1.26 2.02-3 2.02-4.91 0-3.52-2.61-6.43-6-6.92V12h17c2.21 0 4 1.79 4 4z"></path><path d="M37 14h17v3H37zM63.19 27.94A1.2 1.2 0 0162 29.13c-.66 0-1.2-.54-1.2-1.19 0-.66.54-1.2 1.2-1.2.65 0 1.19.54 1.19 1.2z"></path></g><defs data-v-fde0c5aa=""><!----></defs><g data-v-fde0c5aa="" id="5918ef67-3cb8-4ce7-b917-2df903debdaf" fill="#0C203C" transform="matrix(0.5659227322606672,0,0,0.5659227322606672,52.415111586787724,206.51008459583397)"><path d="M0.15 5.33L0.66 5.35C0.77 3.91 0.67 3.70 1.58 3.70L3.05 3.70C3.60 3.70 3.67 3.74 3.67 4.48L3.67 11.28C3.67 11.86 3.61 11.87 2.72 11.87L2.49 11.87L2.49 12.40L6.19 12.42L6.17 11.87L5.61 11.87C4.91 11.87 4.80 11.82 4.80 11.23L4.80 4.37C4.80 3.72 4.80 3.70 5.53 3.70L7.14 3.70C7.67 3.70 7.85 3.77 7.85 4.16C7.85 4.37 7.83 4.66 7.77 5.31L8.27 5.32C8.32 4.87 8.32 4.37 8.44 3.08L0.36 3.08C0.28 4.13 0.21 4.80 0.15 5.33ZM8.74 7.84C8.74 10.25 10.30 12.64 13.48 12.64C16.77 12.64 18.40 10.19 18.40 7.76C18.40 4.51 16.00 2.88 13.59 2.88C11.17 2.88 8.74 4.54 8.74 7.84ZM10.00 7.38C10.00 4.33 12.03 3.46 13.30 3.46C15.19 3.46 17.12 5.14 17.12 8.11C17.12 10.75 15.54 12.04 13.86 12.04C11.34 12.04 10.00 9.65 10.00 7.38ZM18.89 5.33L19.39 5.35C19.50 3.91 19.40 3.70 20.31 3.70L21.78 3.70C22.33 3.70 22.40 3.74 22.40 4.48L22.40 11.28C22.40 11.86 22.34 11.87 21.45 11.87L21.22 11.87L21.22 12.40L24.92 12.42L24.91 11.87L24.35 11.87C23.65 11.87 23.53 11.82 23.53 11.23L23.53 4.37C23.53 3.72 23.53 3.70 24.26 3.70L25.87 3.70C26.40 3.70 26.59 3.77 26.59 4.16C26.59 4.37 26.56 4.66 26.50 5.31L27.01 5.32C27.05 4.87 27.05 4.37 27.17 3.08L19.10 3.08C19.01 4.13 18.94 4.80 18.89 5.33ZM26.53 11.87L26.54 12.42L29.26 12.42L29.26 11.87L28.69 11.87C28.24 11.87 28.11 11.86 28.11 11.63C28.11 11.54 28.18 11.35 28.25 11.19L29.36 8.72L32.61 8.72L33.64 11.27C33.73 11.49 33.78 11.62 33.78 11.70C33.78 11.86 33.59 11.87 33.17 11.87L32.75 11.87L32.73 12.42L35.92 12.42L35.94 11.87L35.73 11.87C35.15 11.87 35.13 11.76 34.51 10.25C33.36 7.48 32.02 4.17 31.47 2.74L31.18 2.74L29.75 6.22C29.55 6.68 29.54 6.68 27.68 10.84C27.24 11.80 27.23 11.87 26.70 11.87ZM29.62 8.11L31.04 4.79L32.37 8.11ZM36.69 3.64L37.18 3.64C37.73 3.64 37.93 3.68 37.93 4.10L37.93 11.34C37.93 11.83 37.91 11.87 37.27 11.87L36.88 11.87L36.89 12.42L43.65 12.42L44.11 10.08L43.62 10.05C43.36 11.59 43.33 11.59 43.05 11.63C42.66 11.70 41.69 11.76 39.52 11.77C39.16 11.77 39.06 11.72 39.06 11.23L39.06 4.16C39.06 3.67 39.20 3.64 39.66 3.64L40.29 3.64L40.29 3.08L36.71 3.08ZM47.46 3.64L47.95 3.64C48.57 3.64 48.59 3.72 49.01 4.73L52.26 12.63L52.50 12.63L55.64 5.57C56.41 3.84 56.41 3.64 56.94 3.64L57.34 3.64L57.37 3.08L54.53 3.08L54.56 3.64L55.01 3.64C55.38 3.64 55.69 3.65 55.69 3.92C55.69 3.99 55.66 4.07 55.62 4.19L52.68 10.95L50.08 4.48C49.92 4.10 49.88 3.95 49.88 3.82C49.88 3.65 49.99 3.64 50.22 3.64L50.96 3.64L50.97 3.08L47.46 3.08ZM58.13 3.64L58.72 3.64C59.40 3.64 59.43 3.67 59.43 4.14L59.43 11.26C59.43 11.82 59.39 11.87 58.65 11.87L58.28 11.87L58.30 12.42L61.88 12.42L61.87 11.87L61.32 11.87C60.62 11.87 60.56 11.82 60.56 11.23L60.56 4.28C60.56 3.65 60.68 3.64 61.42 3.64L61.66 3.64L61.66 3.08L58.14 3.08ZM62.61 10.04C62.79 10.95 62.99 11.87 63.15 12.81L63.63 12.77C63.63 12.77 63.62 12.67 63.62 12.59C63.62 12.46 63.66 12.29 63.87 12.29C64.15 12.29 64.54 12.54 65.49 12.54C67.54 12.54 68.67 11.27 68.67 9.93C68.67 8.75 67.70 8.09 66.65 7.50L65.88 7.08C64.95 6.57 64.13 6.02 64.13 5.12C64.13 4.24 64.89 3.63 65.76 3.63C66.91 3.63 67.66 4.19 67.66 4.19L67.79 5.43L68.29 5.42L68.08 2.86L67.61 2.88C67.61 2.88 67.61 3.25 67.40 3.25C67.30 3.25 66.68 2.97 66.00 2.97C64.60 2.97 63.21 4.00 63.21 5.46C63.21 6.80 64.16 7.42 65.17 7.98L65.74 8.30C66.67 8.81 67.54 9.38 67.54 10.26C67.54 11.33 66.67 11.96 65.67 11.96C64.93 11.96 64.53 11.86 63.94 11.65C63.42 11.47 63.41 11.45 63.28 10.85L63.10 9.98ZM69.87 3.64L70.46 3.64C71.15 3.64 71.18 3.67 71.18 4.14L71.18 11.26C71.18 11.82 71.13 11.87 70.39 11.87L70.03 11.87L70.04 12.42L73.63 12.42L73.61 11.87L73.07 11.87C72.37 11.87 72.31 11.82 72.31 11.23L72.31 4.28C72.31 3.65 72.42 3.64 73.16 3.64L73.40 3.64L73.40 3.08L69.89 3.08ZM74.38 3.64L74.77 3.64C75.28 3.64 75.50 3.67 75.50 4.14L75.50 11.47C75.50 11.83 75.38 11.87 74.91 11.87L74.49 11.87L74.49 12.42L76.48 12.42C78.04 12.42 79.63 12.38 80.50 11.59C80.95 11.19 81.13 10.60 81.13 10.01C81.13 8.95 80.57 7.70 79.00 7.35C79.87 7.10 80.79 6.37 80.79 5.38C80.79 4.31 80.07 3.08 77.50 3.08L74.41 3.08ZM76.61 7.60C77.80 7.60 79.80 7.95 79.80 9.91C79.80 10.67 79.52 11.80 77.55 11.80C76.83 11.80 76.64 11.75 76.64 11.35ZM76.64 7.20L76.64 4.02C76.64 3.81 76.73 3.70 77.06 3.70C78.89 3.70 79.49 4.80 79.49 5.54C79.49 6.24 78.96 7.20 78.01 7.20ZM82.19 3.64L82.78 3.64C83.47 3.64 83.50 3.67 83.50 4.14L83.50 11.26C83.50 11.82 83.45 11.87 82.71 11.87L82.35 11.87L82.36 12.42L85.95 12.42L85.93 11.87L85.39 11.87C84.69 11.87 84.63 11.82 84.63 11.23L84.63 4.28C84.63 3.65 84.74 3.64 85.48 3.64L85.72 3.64L85.72 3.08L82.21 3.08ZM86.70 3.64L87.19 3.64C87.74 3.64 87.93 3.68 87.93 4.10L87.93 11.34C87.93 11.83 87.92 11.87 87.28 11.87L86.88 11.87L86.90 12.42L93.66 12.42L94.12 10.08L93.63 10.05C93.37 11.59 93.34 11.59 93.06 11.63C92.67 11.70 91.70 11.76 89.53 11.77C89.17 11.77 89.07 11.72 89.07 11.23L89.07 4.16C89.07 3.67 89.21 3.64 89.67 3.64L90.30 3.64L90.30 3.08L86.72 3.08ZM94.88 3.64L95.47 3.64C96.15 3.64 96.18 3.67 96.18 4.14L96.18 11.26C96.18 11.82 96.14 11.87 95.40 11.87L95.03 11.87L95.05 12.42L98.63 12.42L98.62 11.87L98.07 11.87C97.37 11.87 97.31 11.82 97.31 11.23L97.31 4.28C97.31 3.65 97.43 3.64 98.17 3.64L98.41 3.64L98.41 3.08L94.89 3.08ZM99.16 5.33L99.67 5.35C99.78 3.91 99.68 3.70 100.59 3.70L102.06 3.70C102.61 3.70 102.68 3.74 102.68 4.48L102.68 11.28C102.68 11.86 102.62 11.87 101.72 11.87L101.50 11.87L101.50 12.40L105.20 12.42L105.18 11.87L104.62 11.87C103.92 11.87 103.81 11.82 103.81 11.23L103.81 4.37C103.81 3.72 103.81 3.70 104.54 3.70L106.15 3.70C106.68 3.70 106.86 3.77 106.86 4.16C106.86 4.37 106.83 4.66 106.78 5.31L107.28 5.32C107.32 4.87 107.32 4.37 107.45 3.08L99.37 3.08C99.29 4.13 99.22 4.80 99.16 5.33ZM108.35 3.64C109.00 3.64 108.96 3.64 109.51 4.49L111.80 8.06L111.80 11.26C111.80 11.84 111.71 11.87 111.02 11.87L110.46 11.87L110.45 12.42L114.38 12.42L114.39 11.87L113.76 11.87C112.95 11.87 112.94 11.82 112.94 11.23L112.94 8.18L115.67 4.23C116.07 3.65 116.16 3.64 116.61 3.64L116.68 3.64L116.68 3.08L114.13 3.08L114.14 3.64L114.37 3.64C114.93 3.64 115.28 3.65 115.28 3.82C115.28 3.86 115.23 3.92 115.19 3.99L112.74 7.46L110.74 4.31C110.52 3.93 110.49 3.88 110.49 3.82C110.49 3.65 110.73 3.64 111.22 3.64L111.50 3.64L111.50 3.08L108.36 3.08ZM120.02 3.08L120.04 3.64C121.37 3.64 121.38 3.65 121.38 4.24L121.38 11.34C121.38 11.83 121.32 11.87 120.68 11.87L120.27 11.87L120.27 12.42L123.87 12.42L123.87 11.87L122.93 11.87C122.57 11.87 122.51 11.69 122.51 11.20L122.51 7.90C122.51 7.53 122.54 7.46 123.02 7.46L125.12 7.46C125.58 7.46 125.62 7.46 125.62 8.26L125.62 8.97L126.14 8.97L126.14 5.63L125.62 5.63L125.62 6.17C125.62 6.80 125.58 6.85 125.09 6.85L122.98 6.85C122.53 6.85 122.51 6.80 122.51 6.29L122.51 4.34C122.51 3.71 122.56 3.68 123.33 3.68L125.71 3.68C126 3.68 126.25 3.68 126.39 3.70C126.59 3.72 126.67 3.86 126.73 5.31L127.27 5.28C127.23 4.48 127.22 3.88 127.20 3.08ZM127.88 7.84C127.88 10.25 129.44 12.64 132.62 12.64C135.91 12.64 137.54 10.19 137.54 7.76C137.54 4.51 135.14 2.88 132.73 2.88C130.31 2.88 127.88 4.54 127.88 7.84ZM129.14 7.38C129.14 4.33 131.17 3.46 132.44 3.46C134.33 3.46 136.26 5.14 136.26 8.11C136.26 10.75 134.68 12.04 133 12.04C130.48 12.04 129.14 9.65 129.14 7.38ZM138.61 3.64L139.01 3.64C139.54 3.64 139.85 3.67 139.85 4.14L139.85 11.47C139.85 11.86 139.83 11.87 139.23 11.87L138.91 11.87L138.91 12.42L142.63 12.42L142.66 11.87L141.95 11.87C141.01 11.87 140.98 11.83 140.98 11.47L140.98 8.04C141.18 8.08 141.37 8.12 142.25 8.12C142.37 8.12 142.48 8.11 142.59 8.11L145.59 12.42L147.62 12.42L147.59 11.87L146.99 11.87C146.80 11.87 146.66 11.84 146.38 11.49L143.70 7.92C145.19 7.53 145.70 6.58 145.70 5.71C145.70 5.03 145.36 4.30 144.69 3.75C144.03 3.22 143.29 3.08 141.85 3.08L138.63 3.08ZM140.98 7.57L140.98 4.28C140.98 3.70 141.08 3.64 141.40 3.64C143.29 3.64 144.31 4.59 144.31 5.92C144.31 7.14 143.58 7.71 141.88 7.71C141.16 7.71 140.98 7.57 140.98 7.57ZM151.12 3.64C151.77 3.64 151.73 3.64 152.28 4.49L154.57 8.06L154.57 11.26C154.57 11.84 154.48 11.87 153.79 11.87L153.23 11.87L153.22 12.42L157.15 12.42L157.16 11.87L156.53 11.87C155.72 11.87 155.71 11.82 155.71 11.23L155.71 8.18L158.44 4.23C158.84 3.65 158.93 3.64 159.38 3.64L159.45 3.64L159.45 3.08L156.90 3.08L156.91 3.64L157.14 3.64C157.70 3.64 158.05 3.65 158.05 3.82C158.05 3.86 158.00 3.92 157.96 3.99L155.51 7.46L153.51 4.31C153.29 3.93 153.26 3.88 153.26 3.82C153.26 3.65 153.50 3.64 153.99 3.64L154.27 3.64L154.27 3.08L151.13 3.08ZM159.32 7.84C159.32 10.25 160.89 12.64 164.07 12.64C167.36 12.64 168.98 10.19 168.98 7.76C168.98 4.51 166.59 2.88 164.18 2.88C161.76 2.88 159.32 4.54 159.32 7.84ZM160.58 7.38C160.58 4.33 162.61 3.46 163.88 3.46C165.77 3.46 167.71 5.14 167.71 8.11C167.71 10.75 166.12 12.04 164.44 12.04C161.92 12.04 160.58 9.65 160.58 7.38ZM170.11 3.64L170.49 3.64C170.95 3.64 171.07 3.67 171.07 4.14L171.07 9.41C171.07 11.12 171.99 12.67 175.13 12.67C178.01 12.67 178.71 11.03 178.71 9.23L178.71 4.26C178.71 3.70 178.82 3.64 179.26 3.64L179.45 3.64L179.45 3.08L176.82 3.08L176.79 3.64L177.28 3.64C177.88 3.64 178.05 3.67 178.05 4.14L178.05 8.68C178.05 10.32 178.00 11.86 175.13 11.86C172.35 11.86 172.20 9.80 172.20 9.34L172.20 4.16C172.20 3.70 172.45 3.64 172.96 3.64L173.49 3.64L173.47 3.08L170.11 3.08ZM180.15 3.64L180.54 3.64C181.08 3.64 181.38 3.67 181.38 4.14L181.38 11.47C181.38 11.86 181.37 11.87 180.77 11.87L180.45 11.87L180.45 12.42L184.17 12.42L184.20 11.87L183.48 11.87C182.55 11.87 182.52 11.83 182.52 11.47L182.52 8.04C182.71 8.08 182.91 8.12 183.79 8.12C183.90 8.12 184.02 8.11 184.13 8.11L187.12 12.42L189.15 12.42L189.13 11.87L188.52 11.87C188.34 11.87 188.20 11.84 187.92 11.49L185.23 7.92C186.73 7.53 187.24 6.58 187.24 5.71C187.24 5.03 186.90 4.30 186.23 3.75C185.57 3.22 184.83 3.08 183.39 3.08L180.17 3.08ZM182.52 7.57L182.52 4.28C182.52 3.70 182.62 3.64 182.94 3.64C184.83 3.64 185.85 4.59 185.85 5.92C185.85 7.14 185.12 7.71 183.41 7.71C182.70 7.71 182.52 7.57 182.52 7.57ZM192.29 5.33L192.79 5.35C192.91 3.91 192.81 3.70 193.72 3.70L195.19 3.70C195.73 3.70 195.80 3.74 195.80 4.48L195.80 11.28C195.80 11.86 195.75 11.87 194.85 11.87L194.63 11.87L194.63 12.40L198.32 12.42L198.31 11.87L197.75 11.87C197.05 11.87 196.94 11.82 196.94 11.23L196.94 4.37C196.94 3.72 196.94 3.70 197.67 3.70L199.28 3.70C199.81 3.70 199.99 3.77 199.99 4.16C199.99 4.37 199.96 4.66 199.91 5.31L200.41 5.32C200.45 4.87 200.45 4.37 200.58 3.08L192.50 3.08C192.42 4.13 192.35 4.80 192.29 5.33ZM201.33 3.64L201.82 3.64C202.37 3.64 202.57 3.68 202.57 4.10L202.57 11.34C202.57 11.83 202.55 11.87 201.91 11.87L201.52 11.87L201.53 12.42L208.29 12.42L208.75 10.08L208.26 10.05C208.00 11.59 207.97 11.59 207.69 11.63C207.30 11.70 206.33 11.76 204.16 11.77C203.80 11.77 203.70 11.72 203.70 11.23L203.70 4.16C203.70 3.67 203.84 3.64 204.30 3.64L204.93 3.64L204.93 3.08L201.35 3.08ZM209.48 10.04C209.66 10.95 209.86 11.87 210.03 12.81L210.50 12.77C210.50 12.77 210.49 12.67 210.49 12.59C210.49 12.46 210.53 12.29 210.74 12.29C211.02 12.29 211.41 12.54 212.37 12.54C214.41 12.54 215.54 11.27 215.54 9.93C215.54 8.75 214.58 8.09 213.53 7.50L212.76 7.08C211.82 6.57 211.01 6.02 211.01 5.12C211.01 4.24 211.76 3.63 212.63 3.63C213.78 3.63 214.54 4.19 214.54 4.19L214.66 5.43L215.17 5.42L214.96 2.86L214.48 2.88C214.48 2.88 214.48 3.25 214.27 3.25C214.17 3.25 213.56 2.97 212.87 2.97C211.47 2.97 210.08 4.00 210.08 5.46C210.08 6.80 211.04 7.42 212.04 7.98L212.62 8.30C213.54 8.81 214.41 9.38 214.41 10.26C214.41 11.33 213.54 11.96 212.55 11.96C211.81 11.96 211.40 11.86 210.81 11.65C210.29 11.47 210.28 11.45 210.15 10.85L209.97 9.98ZM219.34 3.64L219.93 3.64C220.61 3.64 220.64 3.67 220.64 4.14L220.64 11.26C220.64 11.82 220.60 11.87 219.86 11.87L219.49 11.87L219.51 12.42L223.09 12.42L223.08 11.87L222.53 11.87C221.83 11.87 221.77 11.82 221.77 11.23L221.77 4.28C221.77 3.65 221.89 3.64 222.63 3.64L222.87 3.64L222.87 3.08L219.35 3.08ZM223.85 3.08L223.86 3.64L224.95 3.64L225.09 3.81L225.09 11.26C225.09 11.82 225.01 11.87 224.50 11.87L224.08 11.87L224.08 12.42L227.02 12.42L227.02 11.87L226.79 11.87C225.88 11.87 225.75 11.84 225.75 11.23L225.68 4.56L231.78 12.40C231.97 12.64 231.94 12.66 232.09 12.66L232.29 12.66C232.41 12.66 232.41 12.56 232.41 12.32L232.41 4.26C232.41 3.70 232.62 3.64 233.18 3.64L233.51 3.64L233.51 3.08L230.52 3.08L230.50 3.64L230.99 3.64C231.59 3.64 231.76 3.67 231.76 4.14L231.76 10.49L226.02 3.08ZM234.26 3.08L234.28 3.64C235.61 3.64 235.62 3.65 235.62 4.24L235.62 11.34C235.62 11.83 235.56 11.87 234.92 11.87L234.51 11.87L234.51 12.42L238.11 12.42L238.11 11.87L237.17 11.87C236.81 11.87 236.75 11.69 236.75 11.20L236.75 7.90C236.75 7.53 236.78 7.46 237.26 7.46L239.36 7.46C239.82 7.46 239.86 7.46 239.86 8.26L239.86 8.97L240.38 8.97L240.38 5.63L239.86 5.63L239.86 6.17C239.86 6.80 239.82 6.85 239.33 6.85L237.22 6.85C236.77 6.85 236.75 6.80 236.75 6.29L236.75 4.34C236.75 3.71 236.80 3.68 237.57 3.68L239.95 3.68C240.24 3.68 240.49 3.68 240.63 3.70C240.83 3.72 240.91 3.86 240.97 5.31L241.51 5.28C241.47 4.48 241.46 3.88 241.44 3.08ZM242.52 3.64L242.91 3.64C243.45 3.64 243.75 3.67 243.75 4.14L243.75 11.47C243.75 11.86 243.74 11.87 243.14 11.87L242.82 11.87L242.82 12.42L246.54 12.42L246.57 11.87L245.85 11.87C244.92 11.87 244.89 11.83 244.89 11.47L244.89 8.04C245.08 8.08 245.28 8.12 246.16 8.12C246.27 8.12 246.39 8.11 246.50 8.11L249.49 12.42L251.52 12.42L251.50 11.87L250.89 11.87C250.71 11.87 250.57 11.84 250.29 11.49L247.60 7.92C249.10 7.53 249.61 6.58 249.61 5.71C249.61 5.03 249.27 4.30 248.60 3.75C247.94 3.22 247.20 3.08 245.76 3.08L242.54 3.08ZM244.89 7.57L244.89 4.28C244.89 3.70 244.99 3.64 245.31 3.64C247.20 3.64 248.22 4.59 248.22 5.92C248.22 7.14 247.49 7.71 245.78 7.71C245.07 7.71 244.89 7.57 244.89 7.57ZM252.29 11.87L252.31 12.42L255.02 12.42L255.02 11.87L254.45 11.87C254.00 11.87 253.88 11.86 253.88 11.63C253.88 11.54 253.95 11.35 254.02 11.19L255.12 8.72L258.37 8.72L259.41 11.27C259.49 11.49 259.55 11.62 259.55 11.70C259.55 11.86 259.35 11.87 258.93 11.87L258.51 11.87L258.50 12.42L261.69 12.42L261.70 11.87L261.49 11.87C260.92 11.87 260.89 11.76 260.27 10.25C259.13 7.48 257.78 4.17 257.24 2.74L256.94 2.74L255.51 6.22C255.32 6.68 255.30 6.68 253.44 10.84C253.01 11.80 252.99 11.87 252.46 11.87ZM255.39 8.11L256.80 4.79L258.13 8.11ZM262.43 10.04C262.61 10.95 262.81 11.87 262.98 12.81L263.45 12.77C263.45 12.77 263.44 12.67 263.44 12.59C263.44 12.46 263.48 12.29 263.69 12.29C263.97 12.29 264.36 12.54 265.31 12.54C267.36 12.54 268.49 11.27 268.49 9.93C268.49 8.75 267.53 8.09 266.48 7.50L265.71 7.08C264.77 6.57 263.96 6.02 263.96 5.12C263.96 4.24 264.71 3.63 265.58 3.63C266.73 3.63 267.48 4.19 267.48 4.19L267.61 5.43L268.11 5.42L267.90 2.86L267.43 2.88C267.43 2.88 267.43 3.25 267.22 3.25C267.12 3.25 266.50 2.97 265.82 2.97C264.42 2.97 263.03 4.00 263.03 5.46C263.03 6.80 263.98 7.42 264.99 7.98L265.57 8.30C266.49 8.81 267.36 9.38 267.36 10.26C267.36 11.33 266.49 11.96 265.50 11.96C264.75 11.96 264.35 11.86 263.76 11.65C263.24 11.47 263.23 11.45 263.10 10.85L262.92 9.98ZM269.47 5.33L269.98 5.35C270.09 3.91 269.99 3.70 270.90 3.70L272.37 3.70C272.92 3.70 272.99 3.74 272.99 4.48L272.99 11.28C272.99 11.86 272.93 11.87 272.03 11.87L271.81 11.87L271.81 12.40L275.51 12.42L275.49 11.87L274.93 11.87C274.23 11.87 274.12 11.82 274.12 11.23L274.12 4.37C274.12 3.72 274.12 3.70 274.85 3.70L276.46 3.70C276.99 3.70 277.17 3.77 277.17 4.16C277.17 4.37 277.14 4.66 277.09 5.31L277.59 5.32C277.63 4.87 277.63 4.37 277.76 3.08L269.68 3.08C269.60 4.13 269.53 4.80 269.47 5.33ZM278.46 3.64L278.85 3.64C279.38 3.64 279.69 3.67 279.69 4.14L279.69 11.47C279.69 11.86 279.68 11.87 279.08 11.87L278.75 11.87L278.75 12.42L282.48 12.42L282.51 11.87L281.79 11.87C280.85 11.87 280.83 11.83 280.83 11.47L280.83 8.04C281.02 8.08 281.22 8.12 282.10 8.12C282.21 8.12 282.32 8.11 282.44 8.11L285.43 12.42L287.46 12.42L287.43 11.87L286.83 11.87C286.65 11.87 286.51 11.84 286.23 11.49L283.54 7.92C285.04 7.53 285.54 6.58 285.54 5.71C285.54 5.03 285.21 4.30 284.54 3.75C283.88 3.22 283.14 3.08 281.69 3.08L278.47 3.08ZM280.83 7.57L280.83 4.28C280.83 3.70 280.92 3.64 281.25 3.64C283.14 3.64 284.16 4.59 284.16 5.92C284.16 7.14 283.43 7.71 281.72 7.71C281.01 7.71 280.83 7.57 280.83 7.57ZM287.95 3.64L288.33 3.64C288.79 3.64 288.90 3.67 288.90 4.14L288.90 9.41C288.90 11.12 289.83 12.67 292.96 12.67C295.85 12.67 296.55 11.03 296.55 9.23L296.55 4.26C296.55 3.70 296.66 3.64 297.09 3.64L297.29 3.64L297.29 3.08L294.66 3.08L294.63 3.64L295.12 3.64C295.72 3.64 295.89 3.67 295.89 4.14L295.89 8.68C295.89 10.32 295.83 11.86 292.96 11.86C290.19 11.86 290.04 9.80 290.04 9.34L290.04 4.16C290.04 3.70 290.29 3.64 290.79 3.64L291.33 3.64L291.31 3.08L287.95 3.08ZM298.42 8.02C298.42 10.85 300.27 12.64 303.51 12.64C305.56 12.64 307.23 11.45 307.23 11.45L307.31 9.41L306.82 9.41L306.78 10.58C306.77 11.00 305.28 12.03 303.86 12.03C301.38 12.03 299.61 9.84 299.61 7.62C299.61 5.50 301.18 3.71 303.53 3.71C304.49 3.71 305.45 3.93 305.86 4.14C306.73 4.58 306.54 4.27 306.71 5.66L307.22 5.64C307.13 4.75 307.08 3.85 307.05 2.97L306.52 2.97C306.50 3.40 306.53 3.49 306.29 3.49C306.07 3.49 305.55 3.05 303.49 3.05C301.25 3.05 298.42 4.66 298.42 8.02ZM308.14 5.33L308.64 5.35C308.76 3.91 308.66 3.70 309.57 3.70L311.04 3.70C311.58 3.70 311.65 3.74 311.65 4.48L311.65 11.28C311.65 11.86 311.60 11.87 310.70 11.87L310.48 11.87L310.48 12.40L314.17 12.42L314.16 11.87L313.60 11.87C312.90 11.87 312.79 11.82 312.79 11.23L312.79 4.37C312.79 3.72 312.79 3.70 313.52 3.70L315.13 3.70C315.66 3.70 315.84 3.77 315.84 4.16C315.84 4.37 315.81 4.66 315.76 5.31L316.26 5.32C316.30 4.87 316.30 4.37 316.43 3.08L308.35 3.08C308.27 4.13 308.20 4.80 308.14 5.33ZM317.18 3.64L317.56 3.64C318.02 3.64 318.14 3.67 318.14 4.14L318.14 9.41C318.14 11.12 319.06 12.67 322.20 12.67C325.08 12.67 325.78 11.03 325.78 9.23L325.78 4.26C325.78 3.70 325.89 3.64 326.33 3.64L326.52 3.64L326.52 3.08L323.89 3.08L323.86 3.64L324.35 3.64C324.95 3.64 325.12 3.67 325.12 4.14L325.12 8.68C325.12 10.32 325.07 11.86 322.20 11.86C319.42 11.86 319.27 9.80 319.27 9.34L319.27 4.16C319.27 3.70 319.52 3.64 320.03 3.64L320.56 3.64L320.54 3.08L317.18 3.08ZM327.22 3.64L327.61 3.64C328.15 3.64 328.45 3.67 328.45 4.14L328.45 11.47C328.45 11.86 328.44 11.87 327.84 11.87L327.52 11.87L327.52 12.42L331.24 12.42L331.27 11.87L330.55 11.87C329.62 11.87 329.59 11.83 329.59 11.47L329.59 8.04C329.78 8.08 329.98 8.12 330.86 8.12C330.97 8.12 331.09 8.11 331.20 8.11L334.19 12.42L336.22 12.42L336.20 11.87L335.59 11.87C335.41 11.87 335.27 11.84 334.99 11.49L332.30 7.92C333.80 7.53 334.31 6.58 334.31 5.71C334.31 5.03 333.97 4.30 333.30 3.75C332.64 3.22 331.90 3.08 330.46 3.08L327.24 3.08ZM329.59 7.57L329.59 4.28C329.59 3.70 329.69 3.64 330.01 3.64C331.90 3.64 332.92 4.59 332.92 5.92C332.92 7.14 332.19 7.71 330.48 7.71C329.77 7.71 329.59 7.57 329.59 7.57ZM336.99 3.08L337.01 3.64L337.40 3.64C338.30 3.64 338.38 3.67 338.38 4.24L338.38 11.34C338.38 11.83 338.35 11.87 337.64 11.87L337.27 11.87L337.27 12.42L344.37 12.42L344.72 10.25L344.25 10.18C344.19 10.47 344.12 11.03 344.02 11.35C343.92 11.72 344.05 11.73 339.96 11.77C339.60 11.77 339.51 11.69 339.51 11.20L339.51 7.90C339.51 7.53 339.54 7.46 340.02 7.46L342.12 7.46C342.58 7.46 342.62 7.46 342.62 8.25L342.62 8.97L343.14 8.97L343.14 5.63L342.62 5.61L342.62 6.15C342.62 6.79 342.58 6.85 342.09 6.85L339.98 6.85C339.53 6.85 339.51 6.80 339.51 6.29L339.51 4.34C339.51 3.71 339.56 3.68 340.33 3.68L342.71 3.68C343.00 3.68 343.25 3.68 343.39 3.70C343.59 3.72 343.67 3.86 343.73 5.31L344.27 5.28C344.23 4.48 344.22 3.88 344.20 3.08Z"></path></g></svg>